<svg width="15" height="51" viewBox="0 0 15 51" fill="none" xmlns="http://www.w3.org/2000/svg">
<path fill-rule="evenodd" clip-rule="evenodd" d="M7.5 0.240967C7.91421 0.240967 8.25 0.576753 8.25 0.990967L8.25 47.6801L12.9697 42.9605C13.2626 42.6676 13.7374 42.6676 14.0303 42.9605C14.3232 43.2533 14.3232 43.7282 14.0303 44.0211L8.03033 50.0211C7.88968 50.1618 7.69891 50.2408 7.5 50.2408C7.30109 50.2408 7.11032 50.1618 6.96967 50.0211L0.96967 44.0211C0.676777 43.7282 0.676777 43.2533 0.96967 42.9605C1.26256 42.6676 1.73744 42.6676 2.03033 42.9605L6.75 47.6801L6.75 0.990967C6.75 0.576753 7.08579 0.240967 7.5 0.240967Z" fill="#131313"/>
</svg>
